<svg xmlns="http://www.w3.org/2000/svg" viewBox="0 0 827 792" width="827" height="792">
  <path d="M 484 23 L 531 24 L 573 33 L 590 39 L 594 42 L 597 42 L 619 53 L 631 62 L 635 63 L 645 72 L 647 72 L 660 85 L 662 85 L 668 91 L 668 93 L 677 101 L 677 103 L 682 107 L 682 109 L 688 115 L 688 117 L 698 130 L 699 134 L 701 135 L 713 159 L 714 165 L 717 169 L 725 194 L 730 220 L 731 271 L 726 303 L 719 327 L 717 329 L 711 347 L 692 381 L 689 383 L 689 385 L 681 394 L 681 396 L 677 399 L 677 401 L 669 408 L 669 410 L 655 424 L 653 424 L 646 432 L 640 435 L 633 442 L 631 442 L 626 447 L 622 448 L 612 456 L 608 457 L 607 459 L 583 471 L 553 481 L 548 480 L 566 474 L 588 463 L 592 459 L 596 458 L 597 456 L 601 455 L 602 453 L 610 449 L 621 439 L 623 439 L 627 434 L 629 434 L 654 409 L 654 407 L 659 403 L 659 401 L 662 399 L 662 397 L 665 395 L 665 393 L 668 391 L 668 389 L 674 382 L 675 378 L 679 374 L 682 366 L 684 365 L 687 359 L 687 356 L 691 350 L 691 347 L 697 335 L 705 304 L 708 279 L 707 240 L 701 208 L 692 181 L 677 151 L 675 150 L 669 139 L 666 137 L 666 135 L 663 133 L 663 131 L 654 122 L 654 120 L 625 93 L 623 93 L 618 88 L 608 83 L 604 79 L 578 66 L 551 57 L 520 51 L 467 51 L 437 56 L 403 66 L 401 68 L 385 73 L 375 79 L 372 79 L 371 81 L 354 89 L 353 91 L 349 92 L 348 94 L 337 100 L 335 103 L 330 105 L 327 109 L 325 109 L 317 117 L 315 117 L 310 123 L 308 123 L 287 144 L 287 146 L 280 152 L 280 154 L 276 157 L 276 159 L 272 162 L 267 171 L 264 173 L 264 175 L 258 182 L 257 186 L 255 187 L 254 191 L 252 192 L 250 198 L 248 199 L 241 213 L 240 219 L 237 223 L 237 226 L 232 237 L 234 224 L 241 201 L 249 185 L 249 182 L 252 176 L 254 175 L 257 167 L 259 166 L 260 162 L 262 161 L 264 155 L 271 147 L 273 142 L 276 140 L 276 138 L 279 136 L 279 134 L 288 125 L 288 123 L 299 113 L 299 111 L 303 109 L 305 105 L 307 105 L 324 88 L 326 88 L 329 84 L 331 84 L 337 78 L 339 78 L 344 73 L 354 68 L 358 64 L 395 45 L 440 30 Z M 551 129 L 565 129 L 591 134 L 613 145 L 631 161 L 631 163 L 634 165 L 634 167 L 641 175 L 650 198 L 652 226 L 649 241 L 646 240 L 643 242 L 639 242 L 615 233 L 611 233 L 609 231 L 587 226 L 577 222 L 509 207 L 494 201 L 493 199 L 488 197 L 483 190 L 479 199 L 476 216 L 475 204 L 478 186 L 486 167 L 494 158 L 494 156 L 505 146 L 507 146 L 508 144 L 522 136 L 537 131 Z M 560 136 L 551 138 L 566 138 Z M 568 137 L 567 138 L 577 139 L 575 137 Z M 546 142 L 540 144 L 540 147 L 543 148 L 546 152 L 549 152 L 550 147 Z M 522 145 L 515 148 L 513 151 L 522 154 L 534 166 L 535 170 L 537 171 L 541 179 L 543 189 L 545 192 L 545 178 L 542 162 L 537 152 L 533 148 L 527 145 Z M 384 174 L 391 174 L 393 176 L 389 177 L 390 179 L 382 178 L 383 180 L 410 188 L 436 200 L 443 207 L 445 207 L 460 223 L 462 223 L 463 218 L 472 228 L 469 231 L 467 231 L 462 228 L 458 228 L 447 224 L 431 224 L 428 222 L 428 214 L 426 214 L 426 223 L 424 223 L 418 218 L 404 211 L 400 207 L 380 197 L 375 197 L 378 196 L 378 182 Z M 558 174 L 557 179 L 560 200 L 568 202 L 574 195 L 574 193 L 578 191 L 579 205 L 587 206 L 592 199 L 593 206 L 596 209 L 611 214 L 615 213 L 620 201 L 607 197 L 606 202 L 611 203 L 611 205 L 606 206 L 600 203 L 600 196 L 603 192 L 606 192 L 619 197 L 623 193 L 622 191 L 593 182 L 587 193 L 584 195 L 583 179 L 579 178 L 576 178 L 574 180 L 570 189 L 567 191 L 566 176 L 563 174 Z M 633 175 L 633 191 L 629 211 L 631 210 L 635 201 L 639 199 L 642 206 L 643 217 L 645 217 L 645 205 L 642 198 L 641 189 Z M 303 204 L 307 212 L 307 215 L 313 224 L 324 229 L 334 230 L 334 232 L 324 235 L 315 242 L 312 248 L 310 263 L 307 260 L 303 248 L 297 242 L 290 239 L 277 237 L 281 234 L 289 232 L 297 226 L 301 216 Z M 381 282 L 395 283 L 396 285 L 394 287 L 371 291 L 362 291 L 361 293 L 370 293 L 372 298 L 359 301 L 311 302 L 263 306 L 253 305 L 249 303 L 249 301 L 257 300 L 255 298 L 285 292 L 293 292 L 298 290 L 328 286 Z M 474 292 L 476 292 L 479 295 L 479 297 L 473 305 L 486 302 L 487 304 L 489 304 L 489 307 L 486 310 L 485 314 L 493 311 L 498 311 L 501 315 L 479 322 L 475 318 L 479 309 L 467 312 L 463 308 L 463 306 L 469 300 L 469 298 Z M 419 295 L 419 297 L 413 303 L 408 317 L 409 328 L 411 333 L 415 336 L 415 338 L 423 344 L 426 344 L 433 348 L 466 352 L 448 358 L 441 365 L 439 371 L 436 369 L 425 367 L 406 357 L 399 349 L 395 339 L 395 323 L 400 311 L 406 303 L 408 303 L 415 296 Z M 564 299 L 568 300 L 561 301 Z M 500 316 L 507 317 L 508 319 L 512 320 L 520 326 L 514 328 L 508 323 L 500 321 L 495 325 L 498 329 L 503 331 L 504 329 L 501 326 L 505 325 L 512 330 L 512 332 L 510 332 L 508 335 L 500 336 L 499 334 L 497 334 L 489 328 L 489 322 L 492 319 Z M 94 324 L 101 325 L 101 330 L 99 332 L 94 332 L 92 330 L 92 326 Z M 310 324 L 329 324 L 329 328 L 326 328 L 327 330 L 324 330 L 320 333 L 296 335 L 286 338 L 265 340 L 247 344 L 252 345 L 271 341 L 288 341 L 294 339 L 317 337 L 336 337 L 341 339 L 339 344 L 335 344 L 335 346 L 337 346 L 337 353 L 333 355 L 333 357 L 335 357 L 335 360 L 338 357 L 341 357 L 341 360 L 338 364 L 335 364 L 331 369 L 331 371 L 335 371 L 336 366 L 338 371 L 337 377 L 330 376 L 331 378 L 329 382 L 327 382 L 326 385 L 322 386 L 323 388 L 316 388 L 316 390 L 314 390 L 314 392 L 312 392 L 304 402 L 301 402 L 299 406 L 297 405 L 298 407 L 291 411 L 289 414 L 284 416 L 268 416 L 268 411 L 265 411 L 265 406 L 268 407 L 267 405 L 269 403 L 278 399 L 281 395 L 286 393 L 291 388 L 247 388 L 240 386 L 238 386 L 239 388 L 234 388 L 230 387 L 231 385 L 229 385 L 229 382 L 226 382 L 229 379 L 235 378 L 236 376 L 240 375 L 306 366 L 310 362 L 316 361 L 315 359 L 318 358 L 318 355 L 320 356 L 323 350 L 316 349 L 288 352 L 280 351 L 259 354 L 239 353 L 227 355 L 219 353 L 220 351 L 228 350 L 226 349 L 226 346 L 223 349 L 217 347 L 214 348 L 214 342 L 221 341 L 222 339 L 233 339 L 233 337 L 238 337 L 238 335 L 249 335 L 248 333 L 253 332 L 260 333 L 259 331 L 270 331 L 271 329 L 279 329 L 285 327 L 304 325 L 310 326 Z M 563 324 L 565 324 L 566 328 L 571 328 L 571 331 L 573 331 L 573 336 L 576 340 L 575 343 L 576 345 L 579 345 L 573 346 L 567 330 L 564 330 L 571 347 L 564 350 L 564 352 L 560 356 L 561 360 L 567 352 L 577 349 L 579 346 L 583 357 L 589 362 L 598 363 L 605 358 L 602 361 L 602 364 L 598 371 L 587 381 L 579 383 L 584 378 L 578 380 L 571 380 L 561 375 L 554 367 L 540 337 L 538 336 L 539 333 L 564 329 Z M 219 342 L 218 343 L 221 343 L 221 345 L 224 344 L 223 342 Z M 181 416 L 189 417 L 188 422 L 177 423 L 175 420 L 178 418 L 175 417 L 180 418 Z M 250 418 L 252 421 L 246 421 Z M 257 420 L 259 423 L 254 422 L 255 420 Z M 238 422 L 244 422 L 243 424 L 245 424 L 246 426 L 250 426 L 248 427 L 250 429 L 247 429 L 248 431 L 242 432 L 242 434 L 237 435 L 237 439 L 235 441 L 233 441 L 228 446 L 224 447 L 213 459 L 211 459 L 207 463 L 177 462 L 178 459 L 180 459 L 181 457 L 185 456 L 197 447 L 206 443 L 210 439 L 221 434 L 223 431 L 229 429 L 230 427 L 233 427 Z M 296 424 L 298 424 L 298 440 L 301 442 L 302 445 L 310 449 L 305 454 L 299 455 L 296 453 L 291 456 L 291 451 L 289 447 L 282 439 L 288 438 L 291 445 L 297 452 L 303 451 L 301 446 L 297 443 L 293 432 L 291 432 L 286 437 L 286 433 L 289 430 L 289 428 Z M 399 424 L 415 427 L 424 432 L 429 438 L 432 437 L 432 443 L 425 449 L 426 454 L 422 453 L 423 449 L 413 442 L 403 441 L 403 444 L 415 446 L 406 446 L 407 450 L 404 450 L 399 445 L 399 441 L 401 440 L 410 440 L 409 438 L 394 433 L 395 428 Z M 408 429 L 405 431 L 404 436 L 411 437 L 419 441 L 423 445 L 427 443 L 428 440 L 422 433 L 414 429 Z M 281 432 L 283 433 L 279 436 L 264 443 L 260 447 L 260 452 L 263 454 L 263 456 L 271 466 L 285 467 L 278 470 L 268 469 L 263 464 L 259 456 L 255 453 L 255 449 L 261 441 Z M 387 438 L 388 448 L 396 459 L 400 460 L 402 463 L 414 464 L 422 467 L 428 472 L 428 476 L 426 477 L 422 472 L 413 468 L 393 466 L 378 460 L 371 459 L 371 455 L 375 455 L 377 457 L 384 459 L 384 441 Z M 282 440 L 282 444 L 284 445 L 288 455 L 290 456 L 288 459 L 282 459 L 274 446 L 278 441 Z M 278 445 L 277 447 L 280 450 L 282 457 L 285 457 L 283 449 Z M 415 454 L 425 456 L 431 462 L 431 464 L 424 458 L 419 457 Z M 228 466 L 232 466 L 230 467 L 232 469 L 229 469 L 222 476 L 221 480 L 226 482 L 228 480 L 236 479 L 237 481 L 228 481 L 228 483 L 232 484 L 231 486 L 234 487 L 233 489 L 230 488 L 222 490 L 183 487 L 183 485 L 202 484 L 195 478 L 215 478 Z M 403 474 L 410 474 L 411 476 L 403 476 Z M 339 475 L 341 475 L 339 477 L 341 478 L 338 480 L 337 477 Z M 244 477 L 247 479 L 252 478 L 279 480 L 307 480 L 325 482 L 333 482 L 337 478 L 338 482 L 335 483 L 335 486 L 328 487 L 327 490 L 330 489 L 331 492 L 336 493 L 338 495 L 342 495 L 342 497 L 275 494 L 281 492 L 291 492 L 290 490 L 279 490 L 274 489 L 273 487 L 264 487 L 256 484 L 242 483 L 238 479 L 244 479 Z M 426 483 L 432 484 L 426 485 Z M 445 489 L 495 491 L 513 493 L 516 495 L 514 495 L 514 498 L 506 499 L 444 500 L 435 499 L 435 497 L 440 495 Z M 139 637 L 222 637 L 222 639 L 214 647 L 212 647 L 206 654 L 202 656 L 146 656 L 131 662 L 125 668 L 121 676 L 121 687 L 127 693 L 135 695 L 166 695 L 171 687 L 171 684 L 145 684 L 149 675 L 154 670 L 159 668 L 209 668 L 186 713 L 116 713 L 103 709 L 94 701 L 90 692 L 90 679 L 92 672 L 97 663 L 99 662 L 99 660 L 113 647 L 125 641 Z M 245 637 L 322 637 L 334 642 L 339 647 L 341 653 L 341 660 L 338 669 L 336 670 L 334 675 L 324 683 L 317 685 L 315 687 L 303 689 L 321 713 L 288 713 L 282 708 L 282 706 L 280 705 L 280 703 L 278 702 L 278 700 L 276 699 L 271 690 L 247 690 L 236 713 L 204 713 L 220 683 L 222 676 L 224 675 L 224 672 L 239 642 L 243 640 Z M 368 637 L 481 638 L 477 642 L 477 644 L 471 649 L 471 651 L 465 656 L 391 657 L 387 667 L 462 667 L 457 673 L 455 673 L 452 677 L 450 677 L 446 682 L 444 682 L 441 685 L 381 684 L 378 685 L 374 693 L 374 695 L 376 696 L 453 695 L 455 697 L 447 705 L 447 707 L 443 710 L 442 713 L 334 713 L 334 709 L 336 708 L 341 696 L 343 695 L 343 692 L 366 647 Z M 497 637 L 610 637 L 610 639 L 596 656 L 520 657 L 517 663 L 517 667 L 591 667 L 586 673 L 584 673 L 580 678 L 578 678 L 574 683 L 570 685 L 507 685 L 505 688 L 503 695 L 506 696 L 584 696 L 583 699 L 578 703 L 578 705 L 573 709 L 571 713 L 463 713 L 463 710 L 492 653 Z M 625 637 L 655 637 L 659 639 L 659 641 L 665 646 L 668 652 L 672 655 L 672 657 L 677 661 L 677 663 L 681 666 L 681 668 L 685 671 L 685 673 L 694 683 L 696 682 L 698 675 L 705 662 L 705 659 L 707 658 L 707 655 L 711 649 L 711 646 L 716 639 L 718 639 L 719 637 L 749 638 L 720 695 L 720 698 L 716 705 L 715 713 L 687 713 L 680 710 L 646 667 L 644 668 L 641 674 L 641 677 L 637 683 L 637 686 L 635 687 L 635 690 L 628 702 L 628 705 L 624 713 L 591 713 L 622 652 L 625 643 Z M 264 656 L 262 657 L 259 666 L 256 670 L 257 673 L 297 673 L 305 670 L 309 665 L 309 659 L 306 656 Z M 177 749 L 183 750 L 183 755 L 140 755 L 134 753 L 126 753 L 130 751 L 139 750 Z M 662 749 L 704 750 L 716 753 L 708 753 L 703 755 L 658 755 L 656 754 L 656 751 Z" fill="#50c820" fill-rule="evenodd" />
  <path d="M 559 136 L 563 136 L 566 138 L 551 138 Z M 567 137 L 575 137 L 577 139 Z M 632 175 L 635 177 L 635 179 L 633 178 L 633 182 Z M 382 178 L 388 179 L 383 180 Z M 544 178 L 545 192 L 541 182 L 542 180 L 542 182 L 544 183 Z M 640 189 L 645 205 L 645 217 L 643 217 L 641 203 L 639 199 L 637 199 L 640 195 Z M 630 203 L 633 206 L 629 211 Z M 530 227 L 545 229 L 535 231 L 531 233 L 530 236 L 544 237 L 548 239 L 550 242 L 552 242 L 554 245 L 557 245 L 555 238 L 545 230 L 559 232 L 560 234 L 556 238 L 560 241 L 568 241 L 577 238 L 574 243 L 566 246 L 566 249 L 570 251 L 590 251 L 598 247 L 600 244 L 618 250 L 621 262 L 613 279 L 611 280 L 609 288 L 613 286 L 613 284 L 616 282 L 616 280 L 619 278 L 619 276 L 624 270 L 626 270 L 624 271 L 625 282 L 622 288 L 615 295 L 608 297 L 602 305 L 602 307 L 600 307 L 597 311 L 590 314 L 589 316 L 587 315 L 587 317 L 585 318 L 580 319 L 567 320 L 545 317 L 535 312 L 532 312 L 531 310 L 522 306 L 505 291 L 497 277 L 495 267 L 486 267 L 477 261 L 472 250 L 472 241 L 474 235 L 478 230 L 483 228 L 491 229 L 495 233 L 494 255 L 496 259 L 500 261 L 504 255 L 509 238 L 522 234 Z M 231 234 L 233 239 L 230 243 Z M 536 243 L 531 244 L 524 249 L 524 251 L 521 254 L 521 260 L 523 259 L 522 265 L 528 273 L 532 273 L 536 276 L 542 276 L 548 272 L 551 265 L 553 264 L 553 254 L 547 246 L 540 243 Z M 603 249 L 594 253 L 593 256 L 595 257 L 600 255 L 608 255 L 614 260 L 613 252 L 610 249 Z M 596 261 L 589 264 L 582 273 L 581 284 L 584 288 L 596 289 L 600 287 L 603 283 L 603 280 L 605 282 L 609 275 L 609 268 L 607 264 L 603 261 Z M 373 281 L 407 281 L 405 284 L 399 286 L 397 289 L 393 291 L 388 291 L 389 295 L 383 302 L 311 303 L 359 301 L 372 298 L 370 293 L 361 293 L 362 291 L 392 288 L 396 285 L 392 282 L 360 283 Z M 206 283 L 210 283 L 212 285 L 211 290 L 205 290 L 204 286 Z M 298 290 L 293 292 L 285 292 L 291 290 Z M 180 290 L 189 290 L 190 293 L 186 296 L 143 303 L 155 297 Z M 273 294 L 269 296 L 255 298 L 257 300 L 249 301 L 249 303 L 247 304 L 250 303 L 259 306 L 292 303 L 308 304 L 258 307 L 211 313 L 205 315 L 197 315 L 167 321 L 159 320 L 164 318 L 168 319 L 168 317 L 177 314 L 202 309 L 213 305 L 223 304 L 250 297 Z M 565 299 L 561 301 L 566 301 L 568 299 Z M 362 318 L 374 318 L 371 329 L 358 329 L 340 332 L 321 333 L 303 336 L 317 338 L 303 338 L 288 341 L 271 341 L 247 345 L 253 342 L 255 343 L 265 340 L 273 340 L 296 335 L 323 332 L 324 330 L 327 330 L 326 328 L 329 328 L 329 324 L 310 324 L 310 326 L 304 325 L 294 327 L 285 326 Z M 149 322 L 155 323 L 143 325 Z M 93 323 L 100 324 L 94 324 L 92 326 Z M 285 327 L 273 329 L 277 327 Z M 265 329 L 271 329 L 270 331 L 259 331 Z M 259 331 L 260 333 L 253 332 L 248 333 L 249 335 L 238 335 L 238 337 L 233 337 L 233 339 L 222 339 L 221 341 L 214 342 L 214 348 L 217 347 L 223 349 L 226 346 L 226 349 L 228 349 L 220 351 L 220 354 L 259 354 L 280 351 L 288 352 L 320 349 L 323 350 L 323 352 L 321 352 L 320 356 L 318 355 L 318 358 L 315 359 L 316 361 L 312 361 L 306 366 L 294 368 L 285 367 L 305 365 L 319 353 L 317 351 L 271 353 L 175 364 L 165 367 L 158 367 L 92 380 L 80 384 L 69 383 L 71 381 L 69 379 L 72 379 L 84 373 L 105 366 L 109 366 L 121 361 L 125 361 L 127 359 L 142 356 L 145 354 L 154 353 L 157 351 L 174 348 L 186 344 L 196 343 L 200 341 L 205 341 L 209 339 L 215 339 L 224 336 L 247 333 L 252 331 Z M 566 334 L 567 336 L 569 334 L 568 339 L 566 337 Z M 334 335 L 365 335 L 366 337 L 362 341 L 360 341 L 345 357 L 341 367 L 340 378 L 335 383 L 315 393 L 298 409 L 296 409 L 298 407 L 297 405 L 299 406 L 301 402 L 304 402 L 307 399 L 307 397 L 312 392 L 314 392 L 314 390 L 316 390 L 316 388 L 323 388 L 322 386 L 326 385 L 327 382 L 329 382 L 331 378 L 330 376 L 337 377 L 338 371 L 336 366 L 335 371 L 331 371 L 331 369 L 335 364 L 338 364 L 341 360 L 341 357 L 338 357 L 336 360 L 335 357 L 333 357 L 333 355 L 337 353 L 337 346 L 335 346 L 335 344 L 339 344 L 341 339 L 336 337 L 318 337 Z M 569 337 L 571 339 L 573 346 L 571 346 L 568 341 Z M 218 342 L 223 342 L 224 344 L 221 345 L 221 343 Z M 343 351 L 340 354 L 340 356 L 342 356 L 342 353 L 344 353 Z M 271 370 L 265 372 L 251 373 L 257 371 Z M 246 374 L 236 376 L 235 378 L 229 379 L 226 382 L 229 382 L 229 385 L 231 385 L 230 387 L 234 388 L 239 388 L 238 386 L 240 386 L 256 389 L 215 390 L 150 396 L 168 390 L 180 388 L 183 386 L 197 384 L 200 382 L 206 382 L 214 379 L 239 374 Z M 69 380 L 67 381 L 69 385 L 63 384 L 67 387 L 59 386 L 59 384 L 55 385 L 57 383 L 62 384 L 61 382 L 65 383 L 64 381 Z M 281 387 L 291 389 L 283 395 L 281 395 L 283 392 L 287 390 L 278 389 Z M 281 395 L 278 399 L 269 403 L 270 401 Z M 269 403 L 267 405 L 268 407 L 265 406 L 265 411 L 268 411 L 268 416 L 284 416 L 289 414 L 294 409 L 296 410 L 288 416 L 277 417 L 266 421 L 265 423 L 261 424 L 251 432 L 247 433 L 246 435 L 235 441 L 237 439 L 237 435 L 240 435 L 242 434 L 242 432 L 246 432 L 248 431 L 247 429 L 250 429 L 248 428 L 250 426 L 246 426 L 245 424 L 243 424 L 244 422 L 240 423 L 238 421 L 242 420 L 249 414 L 255 412 L 262 406 Z M 215 410 L 223 411 L 202 425 L 157 427 L 97 433 L 106 429 L 111 429 L 114 427 L 132 424 L 143 420 L 159 418 L 163 416 Z M 182 416 L 180 418 L 175 417 L 178 418 L 175 421 L 177 423 L 188 422 L 189 417 Z M 251 418 L 247 419 L 246 421 L 252 421 Z M 260 418 L 255 420 L 254 422 L 259 423 L 257 420 L 261 419 Z M 223 431 L 221 434 L 217 435 L 218 433 Z M 217 435 L 216 437 L 210 439 L 211 437 Z M 403 441 L 404 443 L 410 443 L 412 445 L 403 444 Z M 417 445 L 419 445 L 423 449 L 423 452 L 420 452 L 420 450 L 416 448 L 412 448 L 415 447 L 413 445 Z M 228 446 L 227 448 L 222 450 L 224 447 Z M 301 448 L 303 449 L 303 451 L 301 452 L 297 452 L 295 450 L 296 449 L 297 451 L 300 451 Z M 287 450 L 289 453 L 291 451 L 291 456 L 288 455 Z M 283 451 L 285 453 L 285 457 L 282 457 L 282 454 L 280 452 L 281 451 L 283 454 Z M 248 457 L 248 459 L 252 458 L 251 460 L 248 460 L 239 467 L 227 472 L 229 469 L 232 469 L 230 468 L 232 466 L 228 465 L 233 465 L 239 462 L 240 460 Z M 245 467 L 247 467 L 247 469 L 252 472 L 260 473 L 255 473 L 254 475 L 248 477 L 249 479 L 245 477 L 244 479 L 238 479 L 240 482 L 247 484 L 256 484 L 264 487 L 273 487 L 274 489 L 279 490 L 290 490 L 291 492 L 275 493 L 280 491 L 226 490 L 230 488 L 233 489 L 234 487 L 232 487 L 232 484 L 228 483 L 228 481 L 222 481 L 222 476 L 227 472 L 223 476 L 223 479 L 226 480 L 227 478 L 230 478 L 238 474 Z M 345 470 L 353 471 L 352 475 L 347 474 L 338 482 L 336 477 Z M 365 472 L 368 472 L 368 474 L 372 473 L 369 479 L 380 481 L 378 483 L 382 482 L 383 484 L 383 482 L 391 482 L 396 485 L 393 485 L 394 487 L 392 489 L 366 485 L 367 483 L 369 483 L 369 480 L 365 478 L 366 476 L 363 477 Z M 340 475 L 337 477 L 338 480 L 340 479 Z M 411 475 L 413 476 L 410 480 L 407 480 L 407 482 L 400 480 L 404 476 Z M 351 476 L 355 476 L 356 480 L 358 479 L 358 481 L 361 481 L 359 480 L 361 479 L 362 483 L 364 484 L 352 483 L 352 480 L 350 480 L 352 479 L 350 478 Z M 185 478 L 195 478 L 202 484 L 183 485 L 183 487 L 180 487 L 180 484 L 167 484 L 162 483 L 161 481 L 153 481 L 165 479 L 181 480 Z M 234 479 L 228 481 L 237 481 L 236 479 Z M 417 481 L 424 480 L 422 482 Z M 338 482 L 340 483 L 339 485 L 354 485 L 363 488 L 372 488 L 388 492 L 408 494 L 417 497 L 420 496 L 419 498 L 425 498 L 426 496 L 432 495 L 442 485 L 438 484 L 436 486 L 423 486 L 432 484 L 425 482 L 434 483 L 444 481 L 446 484 L 445 488 L 460 489 L 445 489 L 440 495 L 435 497 L 435 499 L 444 500 L 410 499 L 407 497 L 397 497 L 392 495 L 385 495 L 388 498 L 403 499 L 338 498 L 342 497 L 342 495 L 333 493 L 330 491 L 330 489 L 328 489 L 328 487 L 335 486 L 335 483 Z M 543 481 L 547 483 L 538 484 L 539 482 Z M 401 487 L 402 490 L 403 487 L 410 491 L 411 489 L 414 490 L 414 487 L 416 490 L 414 490 L 413 492 L 406 492 L 401 491 Z M 516 494 L 533 495 L 535 497 L 506 499 L 514 498 L 514 495 Z M 433 595 L 445 595 L 445 597 Z M 286 617 L 415 619 L 285 619 Z M 654 617 L 700 619 L 654 619 Z M 142 636 L 223 636 L 224 638 L 222 639 L 222 637 Z M 368 636 L 482 636 L 482 638 Z M 496 636 L 611 636 L 611 639 L 610 637 L 496 638 Z M 624 636 L 654 637 L 624 638 Z M 389 663 L 389 666 L 461 667 L 387 667 Z M 518 663 L 518 666 L 589 667 L 517 667 Z M 256 670 L 258 670 L 259 672 L 297 673 L 257 673 Z M 145 682 L 145 684 L 171 684 L 171 687 L 169 689 L 169 685 L 144 685 L 143 683 Z M 333 710 L 334 713 L 442 714 L 333 714 Z M 462 711 L 463 713 L 571 713 L 572 711 L 573 712 L 571 714 L 462 714 Z M 712 751 L 718 751 L 719 753 Z M 285 761 L 294 761 L 294 764 L 293 762 Z" fill="#fbc896" fill-rule="evenodd" />
  <path d="M 545 142 L 548 143 L 550 147 L 549 152 L 546 152 L 543 148 L 540 147 L 540 144 Z M 353 158 L 366 161 L 374 167 L 378 168 L 381 172 L 383 172 L 384 175 L 380 178 L 377 185 L 378 196 L 375 196 L 371 199 L 364 201 L 346 201 L 344 199 L 344 194 L 346 192 L 355 190 L 355 188 L 349 182 L 334 177 L 331 174 L 331 169 L 335 168 L 335 165 L 337 163 L 344 162 L 346 160 L 351 160 Z M 557 174 L 563 174 L 566 176 L 567 191 L 570 189 L 571 185 L 573 184 L 576 178 L 583 179 L 584 195 L 587 193 L 593 182 L 622 191 L 623 193 L 619 197 L 606 192 L 603 192 L 600 196 L 600 203 L 606 206 L 611 205 L 611 203 L 606 202 L 607 197 L 620 201 L 615 213 L 611 214 L 596 209 L 593 206 L 592 199 L 587 206 L 579 205 L 578 191 L 574 193 L 574 195 L 568 202 L 560 200 Z M 393 175 L 414 180 L 422 184 L 428 185 L 436 190 L 439 190 L 440 192 L 447 195 L 450 199 L 452 199 L 458 206 L 460 206 L 478 225 L 479 220 L 477 219 L 477 208 L 483 190 L 488 197 L 503 205 L 577 222 L 587 226 L 609 231 L 611 233 L 615 233 L 639 242 L 648 240 L 647 246 L 642 256 L 635 263 L 632 263 L 630 268 L 628 268 L 627 270 L 623 270 L 623 272 L 619 275 L 615 283 L 611 287 L 609 287 L 621 263 L 619 250 L 617 249 L 599 244 L 596 248 L 589 251 L 572 251 L 567 249 L 566 247 L 573 244 L 577 240 L 577 237 L 571 240 L 558 240 L 557 236 L 560 235 L 560 232 L 555 232 L 536 227 L 529 227 L 523 233 L 516 236 L 511 236 L 508 239 L 503 257 L 501 260 L 498 260 L 494 254 L 494 231 L 489 228 L 482 228 L 478 230 L 472 239 L 473 254 L 476 260 L 481 265 L 488 268 L 495 268 L 497 278 L 501 286 L 504 288 L 504 290 L 516 302 L 518 302 L 520 305 L 536 314 L 548 318 L 568 320 L 570 325 L 569 328 L 566 328 L 565 324 L 563 324 L 564 329 L 539 333 L 538 336 L 540 337 L 554 367 L 561 375 L 571 380 L 578 380 L 582 378 L 584 379 L 579 383 L 572 384 L 567 383 L 561 380 L 559 377 L 557 377 L 548 365 L 534 335 L 511 346 L 496 350 L 492 352 L 492 354 L 496 361 L 497 374 L 495 381 L 490 387 L 490 389 L 483 396 L 477 399 L 464 412 L 462 412 L 457 418 L 455 418 L 448 425 L 442 428 L 439 432 L 437 432 L 431 438 L 429 438 L 424 432 L 415 427 L 399 424 L 395 428 L 395 434 L 410 439 L 399 441 L 399 445 L 404 450 L 413 450 L 425 453 L 428 456 L 430 456 L 435 462 L 436 469 L 434 474 L 430 478 L 426 480 L 416 480 L 416 482 L 426 483 L 426 485 L 409 482 L 410 479 L 413 477 L 413 475 L 410 474 L 403 474 L 400 480 L 390 480 L 371 477 L 372 473 L 370 472 L 365 472 L 363 475 L 353 474 L 354 471 L 361 472 L 362 468 L 364 468 L 368 464 L 367 456 L 371 447 L 379 439 L 388 434 L 390 432 L 391 427 L 396 422 L 404 421 L 404 419 L 410 413 L 410 411 L 417 403 L 419 398 L 422 396 L 422 394 L 438 377 L 442 376 L 446 372 L 449 372 L 447 371 L 447 369 L 458 360 L 471 356 L 479 356 L 472 353 L 433 348 L 426 344 L 423 344 L 418 339 L 416 339 L 410 331 L 408 317 L 413 303 L 419 297 L 419 295 L 417 295 L 408 303 L 406 303 L 405 306 L 402 308 L 396 319 L 394 329 L 397 345 L 406 357 L 425 367 L 436 369 L 439 371 L 423 385 L 417 396 L 409 402 L 407 402 L 406 404 L 404 404 L 403 406 L 394 410 L 393 412 L 381 417 L 380 419 L 370 422 L 362 429 L 348 436 L 312 447 L 312 451 L 308 456 L 299 458 L 298 461 L 291 468 L 284 472 L 277 474 L 269 474 L 263 471 L 253 472 L 247 469 L 247 467 L 256 462 L 256 459 L 254 457 L 248 459 L 248 457 L 251 455 L 250 451 L 254 443 L 261 437 L 273 431 L 284 428 L 290 425 L 291 423 L 305 421 L 309 416 L 311 416 L 315 411 L 317 411 L 327 402 L 339 396 L 349 393 L 352 390 L 352 388 L 356 385 L 358 380 L 361 378 L 361 376 L 365 373 L 365 371 L 376 360 L 376 358 L 391 345 L 389 338 L 390 322 L 393 313 L 396 310 L 397 306 L 400 304 L 400 302 L 412 291 L 414 291 L 421 285 L 427 283 L 428 281 L 436 278 L 455 263 L 454 259 L 452 258 L 448 250 L 426 224 L 426 214 L 428 214 L 428 222 L 431 224 L 447 224 L 458 228 L 462 228 L 467 231 L 469 231 L 472 228 L 462 218 L 462 216 L 458 212 L 456 212 L 443 199 L 422 188 L 394 179 L 390 179 L 389 177 Z M 540 230 L 550 233 L 554 237 L 556 245 L 554 245 L 545 237 L 530 236 L 533 232 Z M 532 244 L 543 244 L 547 246 L 553 255 L 553 263 L 544 275 L 534 275 L 530 271 L 529 267 L 531 257 L 533 256 L 535 260 L 540 259 L 541 254 L 538 251 L 544 249 L 532 248 L 528 250 L 521 259 L 522 252 L 525 250 L 525 248 Z M 603 249 L 609 249 L 610 251 L 612 251 L 614 254 L 614 259 L 612 259 L 608 255 L 593 256 L 596 252 Z M 595 261 L 602 261 L 607 264 L 609 269 L 608 277 L 605 280 L 605 268 L 602 265 L 599 265 L 601 267 L 602 272 L 601 278 L 593 288 L 587 289 L 581 283 L 581 276 L 585 268 Z M 591 267 L 587 269 L 587 274 L 592 274 L 594 272 L 594 269 Z M 475 292 L 471 295 L 469 300 L 463 306 L 463 308 L 467 312 L 479 309 L 478 313 L 475 316 L 475 318 L 479 322 L 501 315 L 498 311 L 493 311 L 485 314 L 486 310 L 489 307 L 489 304 L 487 304 L 486 302 L 473 305 L 479 297 L 479 295 Z M 501 316 L 494 318 L 489 322 L 489 328 L 497 334 L 499 334 L 500 336 L 506 336 L 510 332 L 512 332 L 512 330 L 505 325 L 501 326 L 504 329 L 503 331 L 498 329 L 495 326 L 498 322 L 504 321 L 509 325 L 513 326 L 514 328 L 520 326 L 512 320 L 508 319 L 507 317 Z M 590 315 L 595 315 L 603 318 L 610 329 L 612 346 L 609 354 L 601 362 L 592 363 L 583 357 L 579 346 L 577 349 L 567 352 L 561 360 L 560 356 L 564 352 L 564 350 L 571 346 L 579 345 L 573 336 L 573 328 L 575 324 L 581 324 L 581 321 L 585 317 Z M 297 424 L 289 428 L 289 430 L 286 433 L 287 439 L 282 439 L 274 445 L 282 459 L 288 459 L 290 456 L 296 453 L 299 455 L 305 454 L 310 449 L 306 448 L 298 440 Z M 282 432 L 270 436 L 265 440 L 261 441 L 255 449 L 255 453 L 259 456 L 263 464 L 268 469 L 278 470 L 284 468 L 285 466 L 271 466 L 267 462 L 263 454 L 260 452 L 260 447 L 264 443 L 282 434 Z M 388 438 L 384 441 L 384 459 L 377 457 L 375 455 L 371 455 L 371 459 L 378 460 L 393 466 L 413 468 L 422 472 L 426 477 L 428 476 L 428 472 L 422 467 L 414 464 L 402 463 L 400 460 L 396 459 L 388 448 Z M 416 454 L 415 455 L 424 458 L 431 464 L 431 462 L 425 456 Z M 255 466 L 251 469 L 257 469 L 258 466 Z M 383 471 L 380 472 L 378 475 L 398 477 L 398 475 L 396 474 Z M 115 524 L 157 524 L 142 586 L 153 575 L 155 575 L 194 535 L 196 535 L 196 533 L 199 532 L 200 529 L 202 529 L 205 526 L 212 524 L 230 524 L 226 579 L 227 585 L 276 528 L 286 524 L 324 525 L 311 536 L 311 538 L 293 555 L 293 557 L 279 570 L 279 572 L 262 588 L 262 590 L 246 605 L 246 607 L 235 618 L 204 618 L 196 613 L 195 601 L 197 566 L 147 617 L 114 618 L 106 615 L 103 612 L 101 602 L 103 598 L 104 587 L 106 583 L 114 539 L 116 535 Z M 345 524 L 478 525 L 476 525 L 465 537 L 463 537 L 457 544 L 455 544 L 450 549 L 360 550 L 356 562 L 448 562 L 445 566 L 438 570 L 432 577 L 430 577 L 424 583 L 344 583 L 338 594 L 338 596 L 444 596 L 422 618 L 286 618 L 296 598 L 298 597 L 305 583 L 305 580 L 309 575 L 309 572 L 326 540 L 327 535 L 332 529 Z M 519 524 L 639 524 L 632 531 L 630 531 L 623 539 L 621 539 L 617 544 L 615 544 L 611 549 L 519 549 L 516 550 L 511 556 L 512 560 L 517 562 L 593 562 L 602 564 L 608 567 L 614 573 L 615 576 L 615 588 L 608 601 L 596 611 L 584 616 L 574 618 L 441 618 L 446 612 L 448 612 L 452 607 L 454 607 L 465 596 L 565 596 L 573 591 L 573 586 L 568 583 L 493 583 L 481 580 L 473 575 L 469 567 L 469 561 L 472 551 L 474 547 L 478 544 L 478 542 L 486 535 L 490 534 L 495 530 Z M 661 524 L 801 525 L 782 549 L 731 549 L 727 553 L 725 560 L 722 563 L 721 568 L 713 582 L 713 585 L 705 599 L 705 602 L 700 611 L 699 618 L 655 618 L 661 606 L 663 605 L 675 581 L 675 578 L 683 564 L 683 561 L 685 560 L 686 555 L 689 551 L 689 549 L 632 549 L 633 546 L 653 526 Z M 222 739 L 231 740 L 232 746 L 227 746 L 227 743 L 221 744 L 220 748 L 228 753 L 227 761 L 223 765 L 213 766 L 210 764 L 211 758 L 215 758 L 216 762 L 220 762 L 222 760 L 222 755 L 218 754 L 215 751 L 215 745 L 218 741 Z M 252 739 L 264 739 L 267 742 L 267 745 L 265 751 L 262 754 L 257 756 L 251 756 L 248 766 L 243 766 Z M 287 739 L 302 740 L 300 743 L 291 743 L 289 746 L 289 750 L 296 750 L 296 752 L 295 754 L 287 754 L 284 761 L 293 762 L 292 766 L 277 766 Z M 320 739 L 335 739 L 334 743 L 324 743 L 322 750 L 329 750 L 329 753 L 320 754 L 317 760 L 317 762 L 326 762 L 326 765 L 310 766 Z M 354 739 L 365 739 L 368 741 L 368 747 L 366 749 L 364 758 L 362 762 L 358 765 L 344 766 L 344 763 L 346 761 L 346 758 L 348 756 L 350 747 Z M 416 739 L 425 740 L 426 746 L 421 746 L 420 743 L 416 743 L 414 745 L 414 749 L 421 752 L 422 758 L 418 764 L 414 766 L 407 766 L 403 763 L 404 758 L 409 758 L 409 762 L 414 762 L 416 760 L 416 755 L 409 752 L 410 743 Z M 446 739 L 451 739 L 448 750 L 458 741 L 458 739 L 464 739 L 454 749 L 455 766 L 450 766 L 449 755 L 447 755 L 444 758 L 442 766 L 437 766 Z M 488 739 L 493 739 L 491 766 L 486 766 L 486 760 L 480 760 L 476 766 L 471 766 L 471 764 L 473 763 L 473 761 L 475 760 L 475 758 L 477 757 L 477 755 L 479 754 L 479 752 L 481 751 L 482 747 Z M 513 739 L 530 740 L 529 743 L 522 744 L 515 765 L 509 766 L 515 749 L 517 747 L 517 743 L 512 743 Z M 547 739 L 552 739 L 550 747 L 548 749 L 543 765 L 537 766 Z M 572 739 L 577 739 L 579 754 L 583 747 L 585 739 L 590 739 L 588 747 L 586 749 L 580 766 L 575 766 L 574 751 L 572 751 L 571 753 L 567 766 L 562 766 Z M 614 739 L 622 739 L 625 744 L 624 747 L 619 747 L 619 743 L 614 743 L 611 747 L 607 761 L 612 762 L 615 759 L 613 751 L 622 751 L 622 754 L 620 756 L 619 761 L 616 764 L 612 766 L 605 766 L 602 764 L 602 758 L 606 750 L 607 744 Z M 257 743 L 255 744 L 253 752 L 258 752 L 261 748 L 261 743 Z M 358 743 L 351 758 L 351 762 L 355 762 L 358 760 L 361 749 L 363 747 L 362 743 Z M 488 747 L 486 748 L 482 756 L 487 756 Z" fill="#0b1a29" fill-rule="evenodd" />
</svg>